<svg width="32" height="32" viewBox="0 0 32 32" fill="none" xmlns="http://www.w3.org/2000/svg">
<rect width="32" height="32" rx="16" fill="white"/>
<g clip-path="url(#clip0_8061_7420)">
<path opacity="0.2" d="M26.56 20.8878V26.5605L24.1312 24.1317C21.9885 26.2706 19.0749 27.5205 16 27.5205C9.64766 27.5205 4.47998 22.3528 4.47998 16.0005H7.35998C7.35998 20.764 11.2355 24.6405 16 24.6405C18.3059 24.6405 20.4909 23.7026 22.0979 22.0984L19.84 19.8405H25.5126C26.0905 19.8405 26.56 20.309 26.56 20.8878ZM6.48734 12.1605H12.16L9.90206 9.90255C11.5101 8.29839 13.6941 7.36047 16 7.36047C20.7645 7.36047 24.64 11.2369 24.64 16.0005H27.52C27.52 9.64815 22.3523 4.48047 16 4.48047C12.9251 4.48047 10.0125 5.73039 7.86878 7.86927L5.43998 5.44047V11.1131C5.43998 11.692 5.90846 12.1605 6.48734 12.1605Z" fill="#1E2A38"/>
<path d="M13.9912 18.097H11.935L11.6301 19.0292H9.6001L11.8566 12.8608H14.087L16.3348 19.0292H14.2961L13.9912 18.097ZM13.5207 16.642L12.9631 14.9256L12.4055 16.642H13.5207Z" fill="#FF9800"/>
<path d="M20.5555 14.9692C20.48 14.8472 20.3725 14.7543 20.2331 14.6904C20.0937 14.6207 19.9253 14.5859 19.7278 14.5859C19.3561 14.5859 19.0686 14.7078 18.8653 14.9518C18.662 15.1899 18.5603 15.5181 18.5603 15.9363C18.5603 16.4184 18.6736 16.7785 18.9001 17.0166C19.1266 17.2548 19.4751 17.3739 19.9456 17.3739C20.3929 17.3739 20.753 17.1938 21.026 16.8337H19.4839V15.4658H22.6291V17.4C22.3619 17.8588 21.993 18.2538 21.5226 18.5849C21.0521 18.9102 20.4567 19.0728 19.7365 19.0728C19.0976 19.0728 18.54 18.9421 18.0637 18.6807C17.5932 18.4135 17.2302 18.0418 16.9747 17.5655C16.7249 17.0892 16.6 16.5462 16.6 15.9363C16.6 15.3264 16.7249 14.7833 16.9747 14.3071C17.2302 13.8308 17.5932 13.462 18.0637 13.2006C18.5342 12.9334 19.086 12.7998 19.7191 12.7998C20.5264 12.7998 21.1828 12.9944 21.6881 13.3835C22.1992 13.7727 22.5013 14.3013 22.5942 14.9692H20.5555Z" fill="#FF9800"/>
</g>
<defs>
<clipPath id="clip0_8061_7420">
<rect width="23.04" height="23.04" fill="white" transform="translate(4.47998 4.48047)"/>
</clipPath>
</defs>
</svg>
