<svg width="320" height="132" viewBox="0 0 320 132" fill="none" xmlns="http://www.w3.org/2000/svg">
<path d="M31.8018 63.6402H20.6565L19.0036 68.6934H8L20.2315 35.2575H32.3213L44.5056 68.6934H33.4547L31.8018 63.6402ZM29.2516 55.7535L26.2292 46.45L23.2067 55.7535H29.2516ZM181.666 46.6861C181.257 46.025 180.675 45.5212 179.919 45.1749C179.163 44.7971 178.25 44.6082 177.18 44.6082C175.165 44.6082 173.606 45.2694 172.504 46.5917C171.403 47.8825 170.852 49.6614 170.852 51.9282C170.852 54.5414 171.465 56.4934 172.693 57.7842C173.921 59.075 175.81 59.7205 178.36 59.7205C180.785 59.7205 182.737 58.7445 184.216 56.7925H175.857V49.378H192.906V59.8621C191.458 62.3494 189.459 64.4903 186.908 66.2848C184.358 68.0479 181.131 68.9295 177.227 68.9295C173.764 68.9295 170.741 68.2211 168.16 66.8043C165.609 65.3561 163.642 63.3411 162.256 60.7594C160.903 58.1777 160.226 55.234 160.226 51.9282C160.226 48.6224 160.903 45.6786 162.256 43.097C163.642 40.5153 165.609 38.5161 168.16 37.0993C170.71 35.651 173.701 34.9269 177.133 34.9269C181.509 34.9269 185.067 35.9816 187.806 38.091C190.576 40.2005 192.213 43.0655 192.717 46.6861H181.666Z" fill="#FF9800"/>
<path d="M60.3941 58.7287L64.6444 42.058H75.7897L66.9112 68.6934H53.8297L44.9512 42.058H56.0965L60.3941 58.7287ZM104.357 55.1396C104.357 55.8637 104.309 56.5563 104.215 57.2175H87.3552C87.5126 59.5158 88.4729 60.665 90.236 60.665C91.3694 60.665 92.188 60.1455 92.6917 59.1065H103.79C103.412 60.9956 102.609 62.6957 101.381 64.2069C100.185 65.6866 98.6579 66.8673 96.8004 67.7488C94.9743 68.5989 92.9594 69.0239 90.7555 69.0239C88.1108 69.0239 85.7495 68.473 83.6716 67.371C81.6252 66.2691 80.0195 64.6949 78.8546 62.6485C77.7212 60.5705 77.1544 58.1463 77.1544 55.3757C77.1544 52.6051 77.7212 50.1966 78.8546 48.1501C80.0195 46.0722 81.6252 44.4823 83.6716 43.3803C85.7495 42.2784 88.1108 41.7274 90.7555 41.7274C93.4001 41.7274 95.7457 42.2784 97.7921 43.3803C99.8701 44.4508 101.476 45.9935 102.609 48.0085C103.774 50.0234 104.357 52.4005 104.357 55.1396ZM93.7307 52.6366C93.7307 51.755 93.4474 51.0939 92.8806 50.6531C92.3139 50.1808 91.6055 49.9447 90.7555 49.9447C88.8979 49.9447 87.8117 50.842 87.4969 52.6366H93.7307ZM126.326 41.8691C129.38 41.8691 131.757 42.8923 133.458 44.9388C135.189 46.9852 136.055 49.7558 136.055 53.2505V68.6934H125.618V54.5728C125.618 53.3135 125.272 52.3217 124.579 51.5976C123.918 50.842 123.021 50.4642 121.887 50.4642C120.722 50.4642 119.809 50.842 119.148 51.5976C118.487 52.3217 118.156 53.3135 118.156 54.5728V68.6934H107.672V42.058H118.156V46.1194C118.975 44.8601 120.061 43.8368 121.415 43.0497C122.8 42.2626 124.437 41.8691 126.326 41.8691ZM157.177 59.7677V68.6934H153.211C145.906 68.6934 142.254 65.057 142.254 57.7842V50.7948H138.948V42.058H142.254V35.6353H152.738V42.058H157.083V50.7948H152.738V57.9731C152.738 58.6028 152.88 59.0593 153.163 59.3426C153.478 59.626 153.982 59.7677 154.675 59.7677H157.177ZM207.166 46.9695C208.236 45.4268 209.543 44.1989 211.086 43.2859C212.628 42.3414 214.234 41.8691 215.903 41.8691V53.0616H212.928C210.944 53.0616 209.48 53.4079 208.536 54.1006C207.623 54.7932 207.166 56.0211 207.166 57.7842V68.6934H196.682V42.058H207.166V46.9695ZM231.383 69.0239C228.707 69.0239 226.299 68.473 224.158 67.371C222.017 66.2691 220.332 64.6949 219.105 62.6485C217.908 60.5705 217.31 58.1463 217.31 55.3757C217.31 52.6051 217.908 50.1966 219.105 48.1501C220.332 46.0722 222.017 44.4823 224.158 43.3803C226.299 42.2784 228.707 41.7274 231.383 41.7274C234.059 41.7274 236.468 42.2784 238.609 43.3803C240.75 44.4823 242.418 46.0722 243.615 48.1501C244.843 50.1966 245.457 52.6051 245.457 55.3757C245.457 58.1463 244.843 60.5705 243.615 62.6485C242.418 64.6949 240.75 66.2691 238.609 67.371C236.468 68.473 234.059 69.0239 231.383 69.0239ZM231.383 59.9566C232.359 59.9566 233.178 59.5788 233.839 58.8232C234.5 58.0361 234.831 56.8869 234.831 55.3757C234.831 53.8645 234.5 52.731 233.839 51.9754C233.178 51.1883 232.359 50.7948 231.383 50.7948C230.407 50.7948 229.589 51.1883 228.927 51.9754C228.266 52.731 227.936 53.8645 227.936 55.3757C227.936 56.8869 228.251 58.0361 228.88 58.8232C229.541 59.5788 230.376 59.9566 231.383 59.9566ZM276.944 42.058V68.6934H266.46V64.6319C265.641 65.8913 264.539 66.9145 263.154 67.7016C261.8 68.4887 260.179 68.8823 258.29 68.8823C255.236 68.8823 252.843 67.859 251.111 65.8126C249.411 63.7661 248.561 60.9956 248.561 57.5008V42.058H258.998V56.1785C258.998 57.4379 259.329 58.4454 259.99 59.201C260.683 59.9251 261.596 60.2872 262.729 60.2872C263.894 60.2872 264.807 59.9251 265.468 59.201C266.129 58.4454 266.46 57.4379 266.46 56.1785V42.058H276.944ZM292.163 45.6944C292.824 44.4665 293.769 43.5063 294.997 42.8136C296.256 42.0895 297.752 41.7274 299.483 41.7274C301.561 41.7274 303.434 42.2784 305.103 43.3803C306.772 44.4508 308.078 46.025 309.023 48.1029C309.999 50.1494 310.487 52.5736 310.487 55.3757C310.487 58.1777 309.999 60.6177 309.023 62.6957C308.078 64.7421 306.772 66.3163 305.103 67.4183C303.434 68.4887 301.561 69.0239 299.483 69.0239C297.752 69.0239 296.256 68.6776 294.997 67.985C293.769 67.2608 292.824 66.2848 292.163 65.057V81.4443H281.679V42.058H292.163V45.6944ZM299.861 55.3757C299.861 53.9589 299.499 52.857 298.775 52.0699C298.051 51.2828 297.122 50.8892 295.989 50.8892C294.855 50.8892 293.926 51.2828 293.202 52.0699C292.478 52.857 292.116 53.9589 292.116 55.3757C292.116 56.7925 292.478 57.8944 293.202 58.6815C293.926 59.4686 294.855 59.8621 295.989 59.8621C297.122 59.8621 298.051 59.4686 298.775 58.6815C299.499 57.8944 299.861 56.7925 299.861 55.3757Z" fill="#1E2A38"/>
<path d="M14.7297 102.698C13.6592 102.698 12.7226 102.509 11.9197 102.131C11.1169 101.753 10.4872 101.241 10.0307 100.596C9.58994 99.9505 9.33806 99.2343 9.2751 98.4472H10.3849C10.5108 99.313 10.9123 100.084 11.5892 100.761C12.2818 101.438 13.3286 101.777 14.7297 101.777C15.5483 101.777 16.2566 101.627 16.8548 101.328C17.4688 101.029 17.941 100.62 18.2716 100.1C18.6022 99.5806 18.7675 99.006 18.7675 98.3764C18.7675 97.5735 18.5707 96.936 18.1772 96.4637C17.7994 95.9915 17.3192 95.6373 16.7368 95.4011C16.1701 95.165 15.3987 94.9131 14.4227 94.6455C13.3523 94.3622 12.4865 94.0788 11.8253 93.7955C11.1799 93.5121 10.6289 93.0792 10.1724 92.4967C9.73161 91.8985 9.51123 91.0878 9.51123 90.0646C9.51123 89.2775 9.71587 88.5613 10.1252 87.9158C10.5502 87.2547 11.1484 86.7352 11.9197 86.3574C12.6911 85.9796 13.5805 85.7907 14.588 85.7907C16.052 85.7907 17.2326 86.1527 18.1299 86.8769C19.0272 87.601 19.5625 88.4904 19.7356 89.5451H18.6022C18.5077 89.1201 18.2952 88.6872 17.9646 88.2464C17.6498 87.8056 17.1933 87.4436 16.5951 87.1602C16.0126 86.8611 15.3121 86.7116 14.4935 86.7116C13.3916 86.7116 12.4628 87.0185 11.7072 87.6325C10.9516 88.2307 10.5738 89.0335 10.5738 90.041C10.5738 90.8438 10.7706 91.4893 11.1641 91.9773C11.5577 92.4495 12.0378 92.8116 12.6045 93.0635C13.187 93.2996 13.9662 93.5436 14.9422 93.7955C16.0284 94.0945 16.8863 94.3858 17.516 94.6691C18.1614 94.9367 18.7045 95.3696 19.1453 95.9678C19.6018 96.5503 19.8301 97.3453 19.8301 98.3527C19.8301 99.0926 19.6333 99.7931 19.2397 100.454C18.8462 101.115 18.2637 101.659 17.4924 102.084C16.7368 102.493 15.8159 102.698 14.7297 102.698ZM33.0229 89.7104L25.5612 108.554H24.475L26.8599 102.532L21.4761 89.7104H22.6332L27.4502 101.352L31.9367 89.7104H33.0229ZM41.1791 89.4507C42.706 89.4507 43.9497 89.9229 44.9099 90.8675C45.8702 91.7962 46.3503 93.1815 46.3503 95.0233V102.532H45.3113V95.0942C45.3113 93.5672 44.9257 92.4023 44.1543 91.5995C43.383 90.7809 42.3361 90.3716 41.0138 90.3716C39.6285 90.3716 38.5187 90.8124 37.6844 91.6939C36.8658 92.5755 36.4565 93.882 36.4565 95.6136V102.532H35.3939V89.7104H36.4565V92.4259C36.8186 91.4656 37.4168 90.7336 38.2511 90.2299C39.1011 89.7104 40.0771 89.4507 41.1791 89.4507ZM49.4447 96.1095C49.4447 94.7715 49.7044 93.6065 50.2239 92.6148C50.7592 91.6231 51.4912 90.8675 52.4199 90.348C53.3644 89.8127 54.4428 89.5451 55.6549 89.5451C57.2606 89.5451 58.575 89.9465 59.5983 90.7494C60.6372 91.5522 61.2826 92.6305 61.5345 93.9844H60.4247C60.2201 92.8824 59.6848 92.0166 58.819 91.3869C57.969 90.7573 56.9143 90.4424 55.6549 90.4424C54.7104 90.4424 53.8524 90.6549 53.0811 91.08C52.3097 91.4893 51.6879 92.1268 51.2157 92.9926C50.7592 93.8427 50.5309 94.8816 50.5309 96.1095C50.5309 97.3531 50.7592 98.4 51.2157 99.25C51.6879 100.1 52.3097 100.738 53.0811 101.163C53.8524 101.588 54.7104 101.8 55.6549 101.8C56.9143 101.8 57.969 101.485 58.819 100.856C59.6848 100.226 60.2201 99.3602 60.4247 98.2583H61.5345C61.2826 99.5964 60.6372 100.675 59.5983 101.493C58.5593 102.312 57.2448 102.721 55.6549 102.721C54.4428 102.721 53.3644 102.454 52.4199 101.918C51.4912 101.383 50.7592 100.62 50.2239 99.6278C49.7044 98.6204 49.4447 97.4476 49.4447 96.1095ZM90.7276 85.956L86.1467 102.532H84.9897L80.456 87.6089L75.8515 102.532H74.7417L70.2316 85.956H71.365L75.332 101.045L79.8893 85.956H81.0699L85.58 101.139L89.5706 85.956H90.7276ZM93.9085 86.8533C93.6567 86.8533 93.4442 86.7745 93.271 86.6171C93.0978 86.444 93.0112 86.2157 93.0112 85.9324C93.0112 85.6647 93.0978 85.4444 93.271 85.2712C93.4442 85.098 93.6567 85.0115 93.9085 85.0115C94.1604 85.0115 94.3729 85.098 94.5461 85.2712C94.7192 85.4444 94.8058 85.6647 94.8058 85.9324C94.8058 86.2157 94.7192 86.444 94.5461 86.6171C94.3729 86.7745 94.1604 86.8533 93.9085 86.8533ZM94.428 89.7104V102.532H93.3654V89.7104H94.428ZM99.9053 90.6313V99.1084C99.9053 100.053 100.078 100.706 100.425 101.068C100.771 101.415 101.385 101.588 102.267 101.588H103.707V102.532H102.101C100.984 102.532 100.157 102.272 99.6219 101.753C99.1025 101.218 98.8427 100.336 98.8427 99.1084V90.6313H96.9065V89.7104H98.8427V86.4518H99.9053V89.7104H103.707V90.6313H99.9053ZM112.318 89.4507C113.829 89.4507 115.065 89.9229 116.025 90.8675C116.986 91.7962 117.466 93.1815 117.466 95.0233V102.532H116.427V95.0942C116.427 93.5672 116.041 92.4023 115.27 91.5995C114.498 90.7809 113.452 90.3716 112.129 90.3716C110.744 90.3716 109.634 90.8124 108.8 91.6939C107.981 92.5755 107.572 93.882 107.572 95.6136V102.532H106.509V85.0587H107.572V92.4259C107.934 91.4656 108.54 90.7336 109.39 90.2299C110.24 89.7104 111.216 89.4507 112.318 89.4507ZM135.276 102.721C133.749 102.721 132.372 102.367 131.144 101.659C129.916 100.934 128.956 99.9269 128.263 98.6361C127.571 97.3453 127.224 95.8891 127.224 94.2677C127.224 92.6305 127.571 91.1744 128.263 89.8993C128.956 88.6085 129.916 87.6089 131.144 86.9005C132.372 86.1764 133.749 85.8143 135.276 85.8143C136.803 85.8143 138.181 86.1764 139.409 86.9005C140.636 87.6089 141.597 88.6085 142.289 89.8993C142.982 91.1744 143.328 92.6305 143.328 94.2677C143.328 95.8891 142.982 97.3453 142.289 98.6361C141.597 99.9269 140.636 100.934 139.409 101.659C138.181 102.367 136.803 102.721 135.276 102.721ZM135.276 101.777C136.583 101.777 137.764 101.47 138.818 100.856C139.873 100.242 140.699 99.3681 141.298 98.2347C141.912 97.1013 142.219 95.7789 142.219 94.2677C142.219 92.7407 141.912 91.4105 141.298 90.2771C140.699 89.1437 139.873 88.27 138.818 87.6561C137.764 87.0422 136.583 86.7352 135.276 86.7352C133.97 86.7352 132.789 87.0422 131.734 87.6561C130.68 88.27 129.845 89.1437 129.231 90.2771C128.617 91.4105 128.311 92.7407 128.311 94.2677C128.311 95.7789 128.617 97.1013 129.231 98.2347C129.845 99.3681 130.68 100.242 131.734 100.856C132.789 101.47 133.97 101.777 135.276 101.777ZM147.603 93.0871C147.965 92.0481 148.619 91.198 149.563 90.5369C150.523 89.8757 151.68 89.5451 153.034 89.5451C154.231 89.5451 155.293 89.8127 156.222 90.348C157.166 90.8832 157.898 91.6467 158.418 92.6384C158.953 93.6302 159.221 94.7872 159.221 96.1095C159.221 97.4318 158.953 98.5967 158.418 99.6042C157.898 100.596 157.166 101.367 156.222 101.918C155.293 102.454 154.231 102.721 153.034 102.721C151.696 102.721 150.547 102.391 149.587 101.729C148.642 101.052 147.981 100.202 147.603 99.1792V108.577H146.541V89.7104H147.603V93.0871ZM158.135 96.1095C158.135 94.9446 157.914 93.9371 157.473 93.0871C157.033 92.237 156.411 91.5916 155.608 91.1508C154.821 90.6943 153.908 90.466 152.869 90.466C151.877 90.466 150.98 90.7022 150.177 91.1744C149.374 91.6309 148.744 92.2921 148.288 93.1579C147.831 94.008 147.603 94.9918 147.603 96.1095C147.603 97.2429 147.831 98.2425 148.288 99.1084C148.744 99.9584 149.374 100.62 150.177 101.092C150.98 101.548 151.877 101.777 152.869 101.777C153.908 101.777 154.821 101.548 155.608 101.092C156.411 100.635 157.033 99.982 157.473 99.132C157.914 98.2819 158.135 97.2744 158.135 96.1095ZM163.491 93.0871C163.853 92.0481 164.507 91.198 165.451 90.5369C166.411 89.8757 167.568 89.5451 168.922 89.5451C170.119 89.5451 171.181 89.8127 172.11 90.348C173.054 90.8832 173.786 91.6467 174.306 92.6384C174.841 93.6302 175.109 94.7872 175.109 96.1095C175.109 97.4318 174.841 98.5967 174.306 99.6042C173.786 100.596 173.054 101.367 172.11 101.918C171.181 102.454 170.119 102.721 168.922 102.721C167.584 102.721 166.435 102.391 165.475 101.729C164.53 101.052 163.869 100.202 163.491 99.1792V108.577H162.429V89.7104H163.491V93.0871ZM174.023 96.1095C174.023 94.9446 173.802 93.9371 173.361 93.0871C172.921 92.237 172.299 91.5916 171.496 91.1508C170.709 90.6943 169.796 90.466 168.757 90.466C167.765 90.466 166.868 90.7022 166.065 91.1744C165.262 91.6309 164.632 92.2921 164.176 93.1579C163.719 94.008 163.491 94.9918 163.491 96.1095C163.491 97.2429 163.719 98.2425 164.176 99.1084C164.632 99.9584 165.262 100.62 166.065 101.092C166.868 101.548 167.765 101.777 168.757 101.777C169.796 101.777 170.709 101.548 171.496 101.092C172.299 100.635 172.921 99.982 173.361 99.132C173.802 98.2819 174.023 97.2744 174.023 96.1095ZM183.96 102.721C182.764 102.721 181.685 102.454 180.725 101.918C179.765 101.383 179.009 100.62 178.458 99.6278C177.923 98.6204 177.655 97.4476 177.655 96.1095C177.655 94.7872 177.931 93.6302 178.482 92.6384C179.033 91.6309 179.788 90.8675 180.749 90.348C181.725 89.8127 182.811 89.5451 184.007 89.5451C185.204 89.5451 186.282 89.8127 187.242 90.348C188.202 90.8675 188.95 91.6231 189.485 92.6148C190.036 93.6065 190.312 94.7715 190.312 96.1095C190.312 97.4476 190.036 98.6204 189.485 99.6278C188.934 100.62 188.171 101.383 187.195 101.918C186.235 102.454 185.156 102.721 183.96 102.721ZM183.96 101.777C184.889 101.777 185.755 101.572 186.557 101.163C187.376 100.738 188.029 100.1 188.517 99.25C189.005 98.4 189.249 97.3531 189.249 96.1095C189.249 94.8816 189.005 93.8427 188.517 92.9926C188.029 92.1425 187.384 91.5129 186.581 91.1036C185.778 90.6785 184.912 90.466 183.984 90.466C183.055 90.466 182.189 90.6785 181.386 91.1036C180.599 91.5129 179.962 92.1425 179.474 92.9926C178.986 93.8427 178.742 94.8816 178.742 96.1095C178.742 97.3531 178.978 98.4 179.45 99.25C179.938 100.1 180.576 100.738 181.363 101.163C182.165 101.572 183.031 101.777 183.96 101.777ZM194.598 92.3551C194.913 91.4105 195.472 90.6943 196.275 90.2063C197.078 89.7025 198.101 89.4507 199.345 89.4507V90.5605H198.99C197.731 90.5605 196.684 90.9225 195.85 91.6467C195.016 92.3551 194.598 93.52 194.598 95.1414V102.532H193.536V89.7104H194.598V92.3551ZM203.373 90.6313V99.1084C203.373 100.053 203.546 100.706 203.893 101.068C204.239 101.415 204.853 101.588 205.734 101.588H207.175V102.532H205.569C204.451 102.532 203.625 102.272 203.09 101.753C202.57 101.218 202.311 100.336 202.311 99.1084V90.6313H200.374V89.7104H202.311V86.4518H203.373V89.7104H207.175V90.6313H203.373ZM220.816 89.7104V102.532H219.753V99.7459C219.391 100.722 218.785 101.47 217.935 101.989C217.1 102.493 216.14 102.745 215.054 102.745C213.527 102.745 212.276 102.28 211.3 101.352C210.339 100.407 209.859 99.0139 209.859 97.1721V89.7104H210.898V97.1013C210.898 98.6282 211.284 99.801 212.055 100.62C212.827 101.422 213.873 101.824 215.196 101.824C216.581 101.824 217.683 101.383 218.501 100.502C219.336 99.62 219.753 98.3134 219.753 96.5818V89.7104H220.816ZM230.474 89.4507C232.001 89.4507 233.245 89.9229 234.205 90.8675C235.165 91.7962 235.646 93.1815 235.646 95.0233V102.532H234.607V95.0942C234.607 93.5672 234.221 92.4023 233.45 91.5995C232.678 90.7809 231.631 90.3716 230.309 90.3716C228.924 90.3716 227.814 90.8124 226.98 91.6939C226.161 92.5755 225.752 93.882 225.752 95.6136V102.532H224.689V89.7104H225.752V92.4259C226.114 91.4656 226.712 90.7336 227.546 90.2299C228.396 89.7104 229.372 89.4507 230.474 89.4507ZM239.944 86.8533C239.692 86.8533 239.48 86.7745 239.307 86.6171C239.133 86.444 239.047 86.2157 239.047 85.9324C239.047 85.6647 239.133 85.4444 239.307 85.2712C239.48 85.098 239.692 85.0115 239.944 85.0115C240.196 85.0115 240.409 85.098 240.582 85.2712C240.755 85.4444 240.841 85.6647 240.841 85.9324C240.841 86.2157 240.755 86.444 240.582 86.6171C240.409 86.7745 240.196 86.8533 239.944 86.8533ZM240.464 89.7104V102.532H239.401V89.7104H240.464ZM245.941 90.6313V99.1084C245.941 100.053 246.114 100.706 246.46 101.068C246.807 101.415 247.421 101.588 248.302 101.588H249.743V102.532H248.137C247.019 102.532 246.193 102.272 245.658 101.753C245.138 101.218 244.878 100.336 244.878 99.1084V90.6313H242.942V89.7104H244.878V86.4518H245.941V89.7104H249.743V90.6313H245.941ZM262.557 89.7104L255.095 108.554H254.009L256.394 102.532L251.01 89.7104H252.167L256.984 101.352L261.471 89.7104H262.557Z" fill="#1E2A38"/>
<path d="M308.606 94.8801C308.798 94.688 308.798 94.3765 308.606 94.1844L305.475 91.0537C305.283 90.8616 304.972 90.8616 304.78 91.0537C304.587 91.2458 304.587 91.5573 304.78 91.7494L307.562 94.5322L304.78 97.315C304.587 97.5071 304.587 97.8186 304.78 98.0107C304.972 98.2028 305.283 98.2028 305.475 98.0107L308.606 94.8801ZM268.903 95.0242H308.258V94.0403H268.903V95.0242Z" fill="#1E2A38"/>
</svg>
